<svg xmlns="http://www.w3.org/2000/svg" height="24" viewBox="0 -960 960 960" width="24" fill="black"><path d="M480-320 280-520l56-58 104 104v-206h80v206l104-104 56 58-200 200ZM266-200q-95 0-160.5-65.5T40-426q0-84 52.5-147.5T226-650q24-73 87.5-121.5T460-820q111 0 193 72.5t97 181.5q74 9 124 59t50 123q0 75-52.5 127.5T720-200H266Zm0-80h454q42 0 71-29t29-71q0-42-29-71t-71-29h-60v-80q0-83-58.5-141.5T480-700q-83 0-141.5 58.5T280-500h-20q-58 0-99 41t-41 99q0 58 41 99t99 41h6v-200h-6v200Zm214-220Z"/></svg>
