<svg xmlns="http://www.w3.org/2000/svg" height="24" viewBox="0 -960 960 960" width="24" fill="black"><path d="m370-80-16-128q-19-7-40-19t-37-25l-119 50L78-370l102-78q-2-14-2-26t2-26L78-578l80-138 119 50q16-13 37-25t40-19l16-128h160l16 128q19 7 40 19t37 25l119-50 80 138-102 78q2 14 2 26t-2 26l102 78-80 138-119-50q-16 13-37 25t-40 19L590-80H370Zm70-80h80l14-106q31-8 57.5-23.5T648-329l99 41 39-68-86-65q5-14 7-29.5t2-31.5q0-16-2-31.5t-7-29.5l86-65-39-68-99 41q-22-25-48.5-40.5T541-694l-14-106h-80l-14 106q-31 8-57.5 23.5T312-631l-99-41-39 68 86 65q-5 14-7 29.5t-2 31.5q0 16 2 31.5t7 29.5l-86 65 39 68 99-41q22 25 48.5 40.5T419-266l14 106Zm40-220q42 0 71-29t29-71q0-42-29-71t-71-29q-42 0-71 29t-29 71q0 42 29 71t71 29Zm0-80q-9 0-14.5-5.5T460-480q0-9 5.5-14.5T480-500q9 0 14.5 5.5T500-480q0-9-5.5-14.5T480-480ZM480-480Z"/></svg>
